HIERARCHY
ROOT Hips
{
	OFFSET 0.000000 0.000000 0.000000 
	CHANNELS 6 Xposition Yposition Zposition Yrotation Zrotation Xrotation 
	JOINT Lumbar
	{
		OFFSET 0.000000 0.000000 0.000000 
		CHANNELS 3 Zrotation Xrotation Yrotation
		JOINT Neck
		{
			OFFSET 0.000000 0.445665 0.000000 
			CHANNELS 3 Zrotation Xrotation Yrotation
			End Site
			{
				OFFSET 0.000000 0.227535 0.000000 
			}
		}
		JOINT RightShoulder
		{
			OFFSET 0.019635 0.377685 0.194865 
			CHANNELS 3 Zrotation Xrotation Yrotation
			JOINT RightElbow
			{
				OFFSET 0.000000 -0.243375 0.000000 
				CHANNELS 2 Zrotation Yrotation
				JOINT RightWrist
				{
					OFFSET 0.000000 -0.264825 0.000000 
					CHANNELS 2 Zrotation Xrotation
					End Site
					{
						OFFSET 0.006600 -0.176220 0.000990 
					}
				}
			}
		}
		JOINT LeftShoulder
		{
			OFFSET 0.019635 0.377685 -0.194865 
			CHANNELS 3 Zrotation Xrotation Yrotation
			JOINT LeftElbow
			{
				OFFSET 0.000000 -0.243375 0.000000 
				CHANNELS 2 Zrotation Yrotation
				JOINT LeftWrist
				{
					OFFSET 0.000000 -0.264825 0.000000 
					CHANNELS 2 Zrotation Xrotation
					End Site
					{
						OFFSET 0.006600 -0.176220 -0.000990 
					}
				}
			}
		}
	}
	JOINT RightHip
	{
		OFFSET 0.052140 -0.069960 0.075570 
		CHANNELS 3 Zrotation Xrotation Yrotation
		JOINT RightKnee
		{
			OFFSET 0.000000 -0.402270 0.000000 
			CHANNELS 1 Zrotation
			JOINT RightAnkle
			{
				OFFSET 0.000000 -0.404085 0.000000 
				CHANNELS 3 Zrotation Xrotation Yrotation
				End Site
				{
					OFFSET 0.204105 -0.089430 0.008415 
				}
			}
		}
	}
	JOINT LeftHip
	{
		OFFSET 0.052140 -0.069960 -0.075570 
		CHANNELS 3 Zrotation Xrotation Yrotation
		JOINT LeftKnee
		{
			OFFSET 0.000000 -0.402270 0.000000 
			CHANNELS 1 Zrotation
			JOINT LeftAnkle
			{
				OFFSET 0.000000 -0.404085 0.000000 
				CHANNELS 3 Zrotation Xrotation Yrotation
				End Site
				{
					OFFSET 0.204105 -0.089430 -0.008415 
				}
			}
		}
	}
}
MOTION
Frames: 22
Frame Time: 0.02
-0.69904 0.94316 -0.03811 545.69088 0 -10.43581 3.88433 5.02748 -6.97569 -2.96008 -11.02574 -10.07441 3.12172 -35.7773 -43.90315 23.36267 80.94399 1.19982 -11.81937 -0.80812 19.56355 -60.86821 84.73966 -113.40079 20.32511 -2.22306 11.88224 13.6124 13.40906 -16.07416 -2.83228 -4.21694 -5.14921 0.81285 5.81005 -16.56774 -55.38239 5.9998 5.51546 6.94273
-0.70976 0.94475 -0.04073 546.62757 0 -10.37673 3.6314 5.16779 -7.16685 -1.75771 -10.38525 -9.86054 2.18907 -36.77171 -43.82199 23.58014 80.83858 1.05312 -11.76399 -1.88322 18.75599 -60.87362 84.34082 -112.87478 20.19758 -2.15919 10.7542 13.62481 13.82003 -15.3305 -2.56742 -4.27278 -6.13354 3.27078 5.56318 -15.73468 -58.58596 5.72197 5.45597 8.19349
-0.71948 0.94611 -0.04286 547.49772 0 -10.17296 3.29988 5.18406 -7.28646 -0.28417 -9.58856 -9.53843 1.01593 -38.02262 -43.72558 23.87687 80.70376 0.84229 -11.68723 -3.21091 17.70421 -60.8739 83.74098 -112.11968 20.13696 -2.03728 9.68501 13.55001 14.59757 -14.59845 -2.32285 -4.2859 -7.3521 5.75761 5.13427 -14.73708 -61.16917 5.95539 5.97231 10.14139
-0.72963 0.94757 -0.04518 548.39061 0 -10.03268 3.00524 5.25299 -7.43142 1.05116 -8.8434 -9.27611 -0.03918 -39.17199 -43.62305 24.16049 80.60388 0.65708 -11.60129 -4.40612 16.73913 -60.87488 83.22027 -111.44549 20.03604 -1.93794 8.59126 13.51037 15.18469 -13.8599 -2.06943 -4.32305 -8.44507 8.20776 4.78656 -13.81338 -63.93157 5.95442 6.19777 11.72794
-0.73983 0.94907 -0.04762 549.31904 0 -9.90069 2.70343 5.33707 -7.60804 2.45508 -8.17966 -8.97015 -1.1346 -40.2607 -43.5747 24.34904 80.41328 0.48579 -11.59591 -5.68163 15.87383 -60.88098 82.75248 -110.86372 19.97646 -1.85716 7.47734 13.48555 15.88359 -13.10513 -1.81227 -4.34424 -9.63418 10.77629 4.44383 -12.88411 -67.1529 5.94844 6.52907 13.49557
-0.74969 0.95041 -0.04969 550.15696 0 -9.71811 2.39871 5.36064 -7.70238 3.77539 -7.31034 -8.72803 -2.19945 -41.53475 -43.41186 24.75291 80.40106 0.27199 -11.41794 -6.8436 14.74567 -60.87772 82.12685 -110.04529 19.84717 -1.72155 6.42425 13.41106 16.42649 -12.39629 -1.5673 -4.3863 -10.66791 13.09475 4.04881 -11.93147 -69.25285 6.07723 6.78454 15.05263
-0.75887 0.95145 -0.05091 550.75112 0 -9.42458 2.10584 5.24372 -7.57194 4.8358 -5.90168 -8.70026 -3.15036 -43.26799 -42.91621 25.74244 80.93151 -0.06021 -10.76171 -7.68116 12.92817 -60.82641 81.1069 -108.52339 19.50561 -1.46801 5.51693 13.21701 16.5263 -11.79755 -1.36646 -4.50774 -11.27927 14.75204 3.54438 -10.94731 -68.51051 6.48283 6.67558 15.87683
-0.76775 0.95232 -0.05175 551.25774 0 -9.08655 1.81306 5.07086 -7.36338 5.79511 -4.29368 -8.73835 -4.05627 -45.1764 -42.30945 26.94338 81.6351 -0.43006 -9.93386 -8.3862 10.85934 -60.76963 79.93643 -106.78659 19.09285 -1.15873 4.67173 12.97758 16.44423 -11.25038 -1.17487 -4.64952 -11.71572 16.14696 2.99539 -9.94759 -66.63916 7.00357 6.47563 16.46216
-0.77677 0.95324 -0.05274 551.81028 0 -8.77325 1.51999 4.92618 -7.20038 6.77638 -2.78294 -8.73861 -4.96391 -46.99814 -41.76692 28.04118 82.23168 -0.77168 -9.18856 -9.11823 8.92049 -60.73137 78.83922 -105.22212 18.71415 -0.86076 3.80464 12.76142 16.39052 -10.69121 -0.96935 -4.77381 -12.18519 17.63678 2.47323 -8.96136 -65.21601 7.45399 6.32854 17.14627
-0.78574 0.95429 -0.05384 552.33441 0 -8.4355 1.22474 4.76576 -6.99341 7.86986 -1.23717 -8.76822 -5.96048 -48.86013 -41.16624 29.17359 82.94637 -1.16205 -8.42224 -9.99895 6.90518 -60.6275 77.71343 -103.35051 18.32804 -0.61527 2.91254 12.52946 16.56732 -10.08257 -0.80526 -4.93015 -12.84728 19.2335 1.91722 -7.94334 -64.0477 7.99646 6.15151 17.89815
-0.79474 0.95502 -0.0546 552.89812 0 -8.14044 0.93561 4.6262 -6.8592 8.70027 0.27918 -8.75406 -6.75616 -50.67472 -40.66005 30.28056 83.45705 -1.45953 -7.66057 -10.53576 4.99437 -60.65626 76.61543 -102.05049 17.94276 -0.2539 2.0867 12.3227 16.23057 -9.59068 -0.55718 -5.02674 -13.0785 20.54121 1.42316 -6.98848 -62.08566 8.36975 6.00922 18.44015
-0.80386 0.95494 -0.05454 553.58942 0 -7.97141 0.65962 4.56076 -6.9557 8.84191 1.67995 -8.59991 -7.02209 -52.32968 -40.44611 31.28673 83.3581 -1.48624 -6.94219 -10.14786 3.42012 -61.07702 75.62026 -102.55916 17.54963 0.46526 1.4276 12.18026 14.3856 -9.39665 -0.07103 -4.93795 -12.02467 21.14493 1.11516 -6.22237 -58.23703 8.2308 5.97042 18.4833
-0.81304 0.95453 -0.05413 554.32428 0 -7.84826 0.39107 4.51834 -7.1266 8.71794 3.04079 -8.40005 -7.08331 -53.92691 -40.33062 32.25567 83.04887 -1.41881 -6.23664 -9.41783 1.96367 -61.62721 74.66152 -103.62168 17.16451 1.28992 0.83296 12.06788 12.04813 -9.32075 0.49991 -4.7904 -10.56229 21.46123 0.87138 -5.51659 -53.62883 7.91848 5.96934 18.31604
-0.82222 0.95424 -0.05385 555.04183 0 -7.70649 0.12174 4.46415 -7.25669 8.70649 4.40959 -8.22425 -7.22821 -55.54007 -40.16711 33.22735 82.83853 -1.39742 -5.53295 -8.84898 0.46312 -62.1018 73.69388 -104.3111 16.79358 2.03133 0.20924 11.95342 10.0292 -9.19833 1.02881 -4.68137 -9.3833 21.88917 0.59618 -4.78052 -49.34915 7.69382 5.95814 18.22678
-0.83126 0.95407 -0.05368 555.74664 0 -7.55317 -0.15937 4.41346 -7.41313 8.72862 5.8283 -8.03881 -7.41227 -57.20323 -40.01261 34.26624 82.61975 -1.36352 -4.79095 -8.25454 -1.08703 -62.64586 72.68757 -105.49211 16.34532 2.92085 -0.41316 11.78997 7.62572 -9.04667 1.56974 -4.52733 -7.80849 22.38752 0.32796 -4.06683 -45.08934 7.43514 5.91565 18.20321
-0.84062 0.95358 -0.0532 556.48844 0 -7.43603 -0.41323 4.36167 -7.5339 8.61603 7.13117 -7.85925 -7.46535 -58.74593 -39.86538 35.15362 82.36691 -1.33294 -4.1338 -7.63018 -2.50153 -63.07751 71.77362 -105.80022 16.06046 3.52987 -1.02385 11.73436 5.88167 -8.98427 2.10894 -4.44757 -6.93486 22.67509 0.06202 -3.30737 -40.63602 7.2057 5.94693 17.99689
-0.85083 0.95237 -0.05201 557.33077 0 -7.40204 -0.60099 4.30128 -7.53366 8.22185 8.11967 -7.72866 -7.21765 -59.96983 -39.70433 35.62922 82.06594 -1.33308 -3.71138 -7.03882 -3.57649 -63.15392 71.09756 -103.41913 16.23004 3.3056 -1.61777 11.98669 6.31901 -9.13235 2.59597 -4.63569 -8.35067 22.44576 -0.2206 -2.52626 -35.72936 7.08856 6.18509 17.33104
-0.86139 0.95085 -0.0505 558.20741 0 -7.40383 -0.75988 4.23879 -7.4958 7.69707 8.99198 -7.60141 -6.84311 -61.07259 -39.54954 35.9527 81.73826 -1.33974 -3.37451 -6.42407 -4.51576 -63.11497 70.51594 -100.16743 16.56348 2.80058 -2.2022 12.34367 7.39926 -9.36806 3.08302 -4.89392 -10.44575 22.0166 -0.50125 -1.67607 -30.68272 7.00824 6.49431 16.49256
-0.87183 0.94943 -0.0491 559.06308 0 -7.39355 -0.92755 4.17813 -7.47885 7.21574 9.92025 -7.45797 -6.52006 -62.2314 -39.39898 36.34676 81.4254 -1.34439 -2.9965 -5.79944 -5.51278 -63.13783 69.89677 -97.41052 16.81845 2.44628 -2.79179 12.64121 8.02077 -9.567 3.58799 -5.08513 -12.05702 21.68353 -0.77817 -0.77759 -25.7706 6.91753 6.76316 15.73625
-0.88208 0.94814 -0.04785 559.94362 0 -7.36853 -1.11457 4.11655 -7.44984 6.7918 10.83709 -7.37416 -6.21687 -63.38837 -39.22216 36.7348 81.09345 -1.34238 -2.62673 -5.24842 -6.52563 -63.12663 69.2544 -94.25789 17.08927 2.00088 -3.37669 12.98906 9.30264 -9.75386 4.02157 -5.41268 -14.36873 21.31762 -1.0736 -0.21229 -20.51867 6.794 7.06715 14.94974
-0.89282 0.94653 -0.0462 560.77907 0 -7.38036 -1.25293 4.05359 -7.43421 6.22133 11.74666 -7.16848 -5.84356 -64.51578 -39.09995 37.09813 80.79833 -1.3562 -2.26202 -4.54422 -7.47074 -63.15597 68.68446 -91.711 17.36749 1.67364 -3.96851 13.25766 9.40023 -9.98933 4.60107 -5.48626 -15.4189 20.9769 -1.32935 1.05748 -15.96792 6.74993 7.31463 14.19669
-0.90474 0.94415 -0.04356 561.48986 0 -7.49972 -1.27752 4.00846 -7.48089 5.27587 12.69789 -6.61803 -5.321 -65.63581 -39.12958 37.44325 80.60633 -1.41939 -1.8735 -3.41441 -8.29682 -63.33608 68.27157 -91.08799 17.61261 1.77231 -4.59336 13.2721 5.79526 -10.30346 5.59579 -4.73109 -12.5547 20.75185 -1.48978 4.30911 -13.25136 6.91515 7.38587 13.50237
